<svg version="1.1" id="Layer_1" xmlns="http://www.w3.org/2000/svg" xmlns:xlink="http://www.w3.org/1999/xlink" x="0px" y="0px"
	 width="100%" viewBox="0 0 256 256" enable-background="new 0 0 256 256" xml:space="preserve">
<path fill="#010101" opacity="1.000000" stroke="none" 
	d="
M150.000000,257.000000 
	C100.000000,257.000000 50.500008,257.000000 1.000007,257.000000 
	C1.000004,171.666672 1.000004,86.333351 1.000002,1.000018 
	C86.333321,1.000012 171.666641,1.000012 257.000000,1.000006 
	C257.000000,86.333313 257.000000,171.666626 257.000000,256.999969 
	C221.500000,257.000000 186.000000,257.000000 150.000000,257.000000 
M40.252483,223.678116 
	C45.482956,224.870041 50.713432,226.061966 56.585503,227.638382 
	C62.519699,228.720428 68.453888,229.802475 75.130684,231.069260 
	C82.274994,232.116928 89.419312,233.164612 96.994385,234.275452 
	C96.994385,232.396271 97.048378,231.419388 96.983635,230.450439 
	C96.828316,228.126007 96.687408,225.797165 96.418190,223.484344 
	C91.866920,184.384064 90.205292,145.161514 91.220428,105.811836 
	C91.314362,102.170990 92.067451,100.478500 96.210083,100.525703 
	C122.342850,100.823509 148.478363,100.959427 174.612854,100.945282 
	C178.846054,100.942993 179.802231,102.578903 179.930389,106.502373 
	C181.250031,146.897476 178.904419,187.056076 172.639786,226.985718 
	C172.346649,228.854080 172.165405,230.740021 171.883499,233.008438 
	C177.111282,232.236771 181.549210,231.615448 185.974106,230.912125 
	C187.778152,230.625381 189.553940,230.160767 192.211090,229.745575 
	C197.112350,228.666718 202.013596,227.587845 207.762665,226.416321 
	C212.084152,225.243164 216.405640,224.069992 221.535583,222.950119 
	C223.441803,222.373032 225.312912,221.559158 227.261856,221.270203 
	C230.858749,220.736923 232.268265,218.751709 233.222595,215.270340 
	C248.333847,160.143982 248.592087,104.914467 234.849411,49.517448 
	C234.039810,46.253876 232.781906,44.171310 229.115143,43.126850 
	C163.778107,24.515972 98.417412,24.188248 32.921841,42.275978 
	C28.902145,43.386086 27.001265,45.302341 26.014297,49.325382 
	C12.668851,103.723587 12.621222,158.018585 26.881002,212.256226 
	C29.308983,221.491135 30.229334,222.283737 40.252483,223.678116 
z"/>
<path fill="#0200FB" opacity="1.000000" stroke="none" 
	d="
M191.342575,229.777069 
	C189.553940,230.160767 187.778152,230.625381 185.974106,230.912125 
	C181.549210,231.615448 177.111282,232.236771 171.883499,233.008438 
	C172.165405,230.740021 172.346649,228.854080 172.639786,226.985718 
	C178.904419,187.056076 181.250031,146.897476 179.930389,106.502373 
	C179.802231,102.578903 178.846054,100.942993 174.612854,100.945282 
	C148.478363,100.959427 122.342850,100.823509 96.210083,100.525703 
	C92.067451,100.478500 91.314362,102.170990 91.220428,105.811836 
	C90.205292,145.161514 91.866920,184.384064 96.418190,223.484344 
	C96.687408,225.797165 96.828316,228.126007 96.983635,230.450439 
	C97.048378,231.419388 96.994385,232.396271 96.994385,234.275452 
	C89.419312,233.164612 82.274994,232.116928 74.703720,230.564224 
	C64.693542,182.890396 61.834400,135.331451 65.770226,87.346207 
	C66.096321,83.370453 67.029984,81.688225 71.421425,81.302147 
	C112.881630,77.657089 154.291321,77.835907 195.678940,82.243729 
	C197.115997,82.396782 198.534073,82.728180 200.112259,83.002769 
	C205.182098,132.614441 202.146011,181.422577 191.342575,229.777069 
z"/>
<path fill="#FA1603" opacity="1.000000" stroke="none" 
	d="
M191.776825,229.761322 
	C202.146011,181.422577 205.182098,132.614441 200.112259,83.002769 
	C198.534073,82.728180 197.115997,82.396782 195.678940,82.243729 
	C154.291321,77.835907 112.881630,77.657089 71.421425,81.302147 
	C67.029984,81.688225 66.096321,83.370453 65.770226,87.346207 
	C61.834400,135.331451 64.693542,182.890396 74.332413,230.471863 
	C68.453888,229.802475 62.519699,228.720428 56.210701,227.044189 
	C42.903900,174.734650 40.522163,122.517677 48.261505,69.794594 
	C48.757919,66.412865 49.815315,64.745743 53.551479,64.140533 
	C105.658623,55.699898 157.687256,55.893772 209.706284,64.905258 
	C212.956345,65.468285 214.006149,66.819923 214.482864,69.913971 
	C219.299896,101.179176 220.937164,132.620834 217.312393,164.030334 
	C214.894989,184.977554 210.451553,205.690948 206.914856,226.508987 
	C202.013596,227.587845 197.112350,228.666718 191.776825,229.761322 
z"/>
<path fill="#07FC02" opacity="1.000000" stroke="none" 
	d="
M207.338776,226.462646 
	C210.451553,205.690948 214.894989,184.977554 217.312393,164.030334 
	C220.937164,132.620834 219.299896,101.179176 214.482864,69.913971 
	C214.006149,66.819923 212.956345,65.468285 209.706284,64.905258 
	C157.687256,55.893772 105.658623,55.699898 53.551479,64.140533 
	C49.815315,64.745743 48.757919,66.412865 48.261505,69.794594 
	C40.522163,122.517677 42.903900,174.734650 55.889904,226.851929 
	C50.713432,226.061966 45.482956,224.870041 40.151413,222.951065 
	C39.936192,221.402725 39.907269,220.558777 39.695736,219.763382 
	C25.485823,166.332748 24.156105,112.542534 35.044308,58.380894 
	C35.709198,55.073498 36.885258,53.256374 40.537464,52.653824 
	C51.872116,50.783787 63.077835,48.072685 74.442917,46.456974 
	C123.666252,39.459167 172.500290,41.847561 220.898636,53.233086 
	C223.421387,53.826550 225.323807,54.505119 225.971939,57.654724 
	C232.630463,90.011787 234.794083,122.632164 232.405441,155.585114 
	C230.750046,178.422333 226.458847,200.778809 220.727127,222.896851 
	C216.405640,224.069992 212.084152,225.243164 207.338776,226.462646 
z"/>
<path fill="#F9FCF8" opacity="1.000000" stroke="none" 
	d="
M221.131348,222.923492 
	C226.458847,200.778809 230.750046,178.422333 232.405441,155.585114 
	C234.794083,122.632164 232.630463,90.011787 225.971939,57.654724 
	C225.323807,54.505119 223.421387,53.826550 220.898636,53.233086 
	C172.500290,41.847561 123.666252,39.459167 74.442917,46.456974 
	C63.077835,48.072685 51.872116,50.783787 40.537464,52.653824 
	C36.885258,53.256374 35.709198,55.073498 35.044308,58.380894 
	C24.156105,112.542534 25.485823,166.332748 39.695736,219.763382 
	C39.907269,220.558777 39.936192,221.402725 39.950653,222.624115 
	C30.229334,222.283737 29.308983,221.491135 26.881002,212.256226 
	C12.621222,158.018585 12.668851,103.723587 26.014297,49.325382 
	C27.001265,45.302341 28.902145,43.386086 32.921841,42.275978 
	C98.417412,24.188248 163.778107,24.515972 229.115143,43.126850 
	C232.781906,44.171310 234.039810,46.253876 234.849411,49.517448 
	C248.592087,104.914467 248.333847,160.143982 233.222595,215.270340 
	C232.268265,218.751709 230.858749,220.736923 227.261856,221.270203 
	C225.312912,221.559158 223.441803,222.373032 221.131348,222.923492 
z"/>
</svg>